#!OML:ASF H:\GeneralSubjects\Female5\Project 1\Capture day 1\Session 1\Female5.ASF
:FULLY-SPECIFIED
:DEGREES
460
root -11.0693 15.9826 3.27004 354.257 -104.11 -343.709
lowerback 7.71882 2.87708 2.59784
upperback -10.288 4.15466 1.121
thorax -15.7075 1.58417 -1.02228
lowerneck -19.2627 3.3473 4.65683
upperneck 33.2532 3.97244 -4.09037
head 14.9913 1.3896 -1.86699
rclavicle -4.78326e-015 9.93923e-016
rhumerus -53.082 13.3589 -86.9945
rradius 32.7891
rwrist -4.03826
rhand -18.9832 -24.5711
rfingers 7.12502
rthumb 7.32132 -54.4245
lclavicle -4.78326e-015 9.93923e-016
lhumerus -38.9425 -7.0038 83.6329
lradius 44.4467
lwrist -4.77455
lhand -33.7801 32.714
lfingers 7.12502
lthumb -6.96733 -297.421
rfemur 14.4656 41.3063 43.9712
rtibia -12.8026
rfoot -45.5766 -40.7357
rtoes 15.7834
lfemur -29.0571 -20.5148 -10.6204
ltibia 11.3432
lfoot -27.4098 -1.92855
ltoes -7.77315
461
root -11.0351 15.9794 3.26229 354.347 -104.332 -343.881
lowerback 7.71648 2.88585 2.68813
upperback -10.3573 4.17418 1.10212
thorax -15.7831 1.57643 -1.09806
lowerneck -19.0308 3.38195 4.80485
upperneck 33.2717 4.04451 -4.30001
head 14.9618 1.40637 -1.97059
rclavicle 9.50439e-015 1.88845e-015
rhumerus -52.6601 13.7216 -87.0521
rradius 33.3222
rwrist -4.58138
rhand -20.5614 -23.8363
rfingers 7.12502
rthumb 5.79782 -53.737
lclavicle 9.50439e-015 1.88845e-015
lhumerus -39.2306 -7.67149 84.7405
lradius 44.5185
lwrist -5.58994
lhand -33.1559 32.1298
lfingers 7.12502
lthumb -6.36468 -297.986
rfemur 14.6248 41.4903 44.1063
rtibia -13.0287
rfoot -45.3751 -40.8912
rtoes 16.167
lfemur -28.7937 -20.6652 -10.4208
ltibia 10.8696
lfoot -27.8515 -1.66661
ltoes -7.52826
462
root -11.0026 15.9759 3.2546 354.566 -104.535 -344.234
lowerback 7.80855 2.92437 2.79571
upperback -10.4367 4.23409 1.01066
thorax -15.924 1.57807 -1.27878
lowerneck -18.8736 3.37465 4.88017
upperneck 33.4126 4.01734 -4.34714
head 14.9934 1.39224 -2.01451
rclavicle 1.45858e-014 1.15295e-014
rhumerus -52.2134 13.6795 -86.868
rradius 33.9293
rwrist -4.72814
rhand -20.4893 -23.8458
rfingers 7.12502
rthumb 5.86747 -53.7446
lclavicle 1.45858e-014 1.15295e-014
lhumerus -39.5928 -8.50447 85.7974
lradius 44.5646
lwrist -6.17138
lhand -32.2524 31.6357
lfingers 7.12502
lthumb -5.49239 -298.455
rfemur 14.8891 41.6467 44.3239
rtibia -13.1855
rfoot -45.5047 -40.7575
rtoes 17.274
lfemur -28.4732 -20.8656 -10.3003
ltibia 10.4097
lfoot -28.3115 -1.74215
ltoes -6.9946
463
root -10.9685 15.9735 3.24396 354.152 -104.795 -343.924
lowerback 7.86557 2.98981 2.97506
upperback -10.4782 4.35004 0.990147
thorax -15.9938 1.60545 -1.4289
lowerneck -18.644 3.31313 5.13441
upperneck 33.4259 3.93163 -4.62381
head 14.9564 1.34685 -2.19385
rclavicle 4.73108e-014 4.48756e-014
rhumerus -51.691 13.6249 -86.5713
rradius 34.6312
rwrist -4.74476
rhand -20.325 -24.8566
rfingers 7.12502
rthumb 6.02606 -54.7509
lclavicle 4.73108e-014 4.48756e-014
lhumerus -40.0174 -9.27916 86.7909
lradius 44.6823
lwrist -6.61055
lhand -31.6837 30.7707
lfingers 7.12502
lthumb -4.9433 -299.307
rfemur 15.1012 41.8514 44.7635
rtibia -13.2301
rfoot -45.6531 -40.6197
rtoes 18.0384
lfemur -28.2911 -20.9156 -9.93146
ltibia 10.1922
lfoot -28.6948 -1.59867
ltoes -6.57646
464
root -10.9328 15.9696 3.23646 354.039 -105.065 -343.805
lowerback 7.81016 3.02037 3.00245
upperback -10.5002 4.4 1.06691
thorax -15.9883 1.62996 -1.36508
lowerneck -18.9617 3.38762 4.91219
upperneck 33.7878 4.07798 -4.54121
head 15.2009 1.38047 -2.10268
rclavicle -2.48854e-014 -1.6201e-014
rhumerus -51.0275 13.8312 -86.2087
rradius 35.3552
rwrist -4.96923
rhand -21.1405 -26.0135
rfingers 7.12502
rthumb 5.23874 -55.9287
lclavicle -2.48854e-014 -1.6201e-014
lhumerus -40.3881 -9.67431 87.6818
lradius 44.5724
lwrist -7.09366
lhand -31.1568 30.0042
lfingers 7.12502
lthumb -4.43455 -300.062
rfemur 15.0759 42.1113 44.914
rtibia -13.2867
rfoot -45.3912 -40.8491
rtoes 17.7427
lfemur -28.3119 -20.8296 -9.61755
ltibia 10.1747
lfoot -28.9569 -1.08839
ltoes -6.25185
465
root -10.8974 15.9648 3.23386 354.46 -105.295 -344.175
lowerback 7.75628 3.04667 2.97287
upperback -10.5432 4.42938 1.09901
thorax -16.0108 1.64677 -1.31608
lowerneck -19.1151 3.42994 4.77771
upperneck 33.9462 4.18638 -4.54892
head 15.3152 1.40148 -2.06635
rclavicle 1.50455e-014 8.24956e-015
rhumerus -50.3375 13.8783 -85.7321
rradius 36.0598
rwrist -5.31869
rhand -22.3234 -26.3266
rfingers 7.12502
rthumb 4.09647 -56.267
lclavicle 1.50455e-014 8.24956e-015
lhumerus -40.7477 -9.93167 88.4149
lradius 44.3504
lwrist -7.53863
lhand -30.0828 29.494
lfingers 7.12502
lthumb -3.39743 -300.553
rfemur 14.9539 42.3608 44.7727
rtibia -13.4196
rfoot -44.7994 -41.322
rtoes 16.9461
lfemur -28.3891 -20.8211 -9.49468
ltibia 10.1645
lfoot -29.2505 -0.968764
ltoes -6.24849
